<?xml version="1.0" encoding="utf-8"?>
<!-- Generator: Adobe Illustrator 18.1.1, SVG Export Plug-In . SVG Version: 6.00 Build 0)  -->
<svg version="1.1" id="Layer_1" xmlns="http://www.w3.org/2000/svg" xmlns:xlink="http://www.w3.org/1999/xlink" x="0px" y="0px"
	 viewBox="-250 250 1500 500" enable-background="new -250 250 1500 500" xml:space="preserve">
<path fill="#FFFFFF" d="M38,335.5l-53.2,329h-52.2l-53.2-329H-77l35.7,251.1l35.7-251.1H38z M100.6,664.5c-31,0-46.5-16.3-46.5-49
	V425.8c0-32.9,15.4-49.4,46.1-49.4h36.9c30.8,0,46.1,16.5,46.1,49.4v189.8c0,32.6-15.5,49-46.5,49H100.6z M109.8,629.6h19.7
	c10.2,0,15.2-5.6,15.2-16.9V428.2c0-11.2-5.8-16.9-17.3-16.9h-18.1c-11.2,0-16.9,5.6-16.9,16.9v184.6
	C92.6,624,98.3,629.6,109.8,629.6z M278.7,411.3v253.2h-38.5V411.3h-36.9v-34.9h112.4v34.9H278.7z M337.7,664.5V376.4h95.5v34.9h-57
	v87.5h50.6v34.9h-50.6v95.9h57v34.9H337.7z M616.5,494.5v-159h44v329h-44V599l-47.2-149.8v215.4h-44v-329h44L616.5,494.5z
	 M732.4,664.5c-31,0-46.5-16.3-46.5-48.9V425.9c0-32.9,15.4-49.3,46.1-49.3h36.9c30.7,0,46.1,16.4,46.1,49.3v189.7
	c0,32.6-15.5,48.9-46.5,48.9H732.4z M741.6,629.6h19.7c10.2,0,15.2-5.6,15.2-16.8V428.3c0-11.2-5.8-16.8-17.2-16.8h-18
	c-11.2,0-16.8,5.6-16.8,16.8v184.5C724.4,624,730.1,629.6,741.6,629.6z M1050.4,376.6l-42.5,287.9h-41.7l-23.7-166.8l-23.3,166.8
	h-41.7l-42.5-287.9h38.1l27.3,215.8l27.3-215.8h30.1L985,592.3l27.3-215.8H1050.4z M1120.6,335.5l-5.5,240.1h-37.1l-6-240.1H1120.6z
	 M1120.6,608.6v55.9h-46.7v-55.9H1120.6z"/>
</svg>
